<svg xmlns="http://www.w3.org/2000/svg" width="41" height="41" viewBox="0 0 41 41">
  <g id="Grupo_167" data-name="Grupo 167" transform="translate(-1118 -66)">
    <circle id="Elipse_3" data-name="Elipse 3" cx="20.5" cy="20.5" r="20.5" transform="translate(1118 66)" fill="#fff"/>
    <g id="Sustracción_1" data-name="Sustracción 1" transform="translate(13269 75)" fill="none">
      <path d="M-12128,24a11.926,11.926,0,0,1-8.486-3.514A11.918,11.918,0,0,1-12140,12a11.922,11.922,0,0,1,3.515-8.487A11.925,11.925,0,0,1-12128,0a12.01,12.01,0,0,1,3.5.518,12.09,12.09,0,0,0-6.094,4.274A11.9,11.9,0,0,0-12133,12a11.9,11.9,0,0,0,2.405,7.207,12.1,12.1,0,0,0,6.094,4.273A12.012,12.012,0,0,1-12128,24Z" stroke="none"/>
      <path d="M -12127.9990234375 22.99915885925293 C -12127.9736328125 22.99915885925293 -12127.9482421875 22.99907302856445 -12127.9228515625 22.9989013671875 C -12129.2568359375 22.15678977966309 -12130.44140625 21.07399368286133 -12131.392578125 19.80892944335938 C -12133.09765625 17.5426197052002 -12133.9990234375 14.84271907806396 -12133.9990234375 12.00109958648682 C -12133.9990234375 9.15839958190918 -12133.09765625 6.45768928527832 -12131.392578125 4.191079616546631 C -12130.44140625 2.925626754760742 -12129.2578125 1.842566132545471 -12127.923828125 1.000254154205322 C -12127.9482421875 1.00008499622345 -12127.9736328125 0.9999994039535522 -12127.9990234375 0.9999994039535522 C -12130.9375 0.9999994039535522 -12133.7001953125 2.144109487533569 -12135.7783203125 4.221539497375488 C -12137.85546875 6.298969268798828 -12139 9.061799049377441 -12139 12.00109958648682 C -12139 14.93903923034668 -12137.85546875 17.70090866088867 -12135.7783203125 19.77793884277344 C -12133.7001953125 21.85516929626465 -12130.9375 22.99915885925293 -12127.9990234375 22.99915885925293 M -12127.9990234375 23.99915885925293 C -12131.2041015625 23.99915885925293 -12134.21875 22.75119018554688 -12136.4853515625 20.48513031005859 C -12138.751953125 18.21906852722168 -12140 15.2060489654541 -12140 12.00109958648682 C -12140 8.794819831848145 -12138.751953125 5.780859470367432 -12136.4853515625 3.51440954208374 C -12134.21875 1.248109459877014 -12131.2041015625 -5.703735155293543e-07 -12127.9990234375 -5.703735155293543e-07 C -12126.8076171875 -5.703735155293543e-07 -12125.630859375 0.1744394302368164 -12124.5 0.5184594392776489 C -12126.9072265625 1.251349449157715 -12129.072265625 2.76837944984436 -12130.59375 4.79202938079834 C -12132.1669921875 6.88370943069458 -12132.9990234375 9.376559257507324 -12132.9990234375 12.00109958648682 C -12132.9990234375 14.62450981140137 -12132.1669921875 17.11652946472168 -12130.59375 19.20775032043457 C -12129.072265625 21.22978973388672 -12126.908203125 22.74728012084961 -12124.5 23.48069000244141 C -12125.6328125 23.82536888122559 -12126.810546875 23.99915885925293 -12127.9990234375 23.99915885925293 Z" stroke="none" fill="#393939"/>
    </g>
  </g>
</svg>
